<?xml version="1.0" encoding="UTF-8"?>
<svg id="Layer_1" data-name="Layer 1" xmlns="http://www.w3.org/2000/svg" xmlns:xlink="http://www.w3.org/1999/xlink" viewBox="7.18 4.83 30 30">
  <defs>
    <style>
      .cls-1 {
        fill: url(#linear-gradient-5);
      }

      .cls-2 {
        fill: url(#linear-gradient-6);
      }

      .cls-3 {
        fill: url(#linear-gradient-4);
      }

      .cls-4 {
        fill: url(#linear-gradient-3);
      }

      .cls-5 {
        fill: url(#linear-gradient-2);
      }

      .cls-6 {
        fill: url(#linear-gradient);
      }

      .cls-7 {
        fill: #fff;
      }
    </style>
    <linearGradient id="linear-gradient" x1="15.09" y1="78.79" x2="25.87" y2="78.79" gradientTransform="translate(0 99.89) scale(1 -1)" gradientUnits="userSpaceOnUse">
      <stop offset="0" stop-color="#11509e"/>
      <stop offset=".51" stop-color="#0574bb"/>
      <stop offset="1" stop-color="#11509e"/>
    </linearGradient>
    <linearGradient id="linear-gradient-2" x1="16.95" y1="84.03" x2="20.35" y2="84.03" gradientTransform="translate(-50.24 67.47) rotate(40.65) scale(1 -1)" gradientUnits="userSpaceOnUse">
      <stop offset="0" stop-color="#11509e"/>
      <stop offset=".51" stop-color="#0574bb"/>
      <stop offset="1" stop-color="#11509e"/>
    </linearGradient>
    <linearGradient id="linear-gradient-3" x1="23.85" y1="76" x2="27.25" y2="76" gradientTransform="translate(-43.34 64.92) rotate(40.65) scale(1 -1)" gradientUnits="userSpaceOnUse">
      <stop offset="0" stop-color="#11509e"/>
      <stop offset=".51" stop-color="#0574bb"/>
      <stop offset="1" stop-color="#11509e"/>
    </linearGradient>
    <linearGradient id="linear-gradient-4" x1="21.98" y1="80.76" x2="24.27" y2="80.76" gradientTransform="translate(0 99.89) scale(1 -1)" gradientUnits="userSpaceOnUse">
      <stop offset="0" stop-color="#11509e"/>
      <stop offset=".51" stop-color="#0574bb"/>
      <stop offset="1" stop-color="#11509e"/>
    </linearGradient>
    <linearGradient id="linear-gradient-5" x1="22.42" y1="81.75" x2="26.09" y2="81.75" gradientTransform="translate(0 99.89) scale(1 -1)" gradientUnits="userSpaceOnUse">
      <stop offset="0" stop-color="#11509e"/>
      <stop offset=".51" stop-color="#0574bb"/>
      <stop offset="1" stop-color="#11509e"/>
    </linearGradient>
    <linearGradient id="linear-gradient-6" x1="21.1" y1="270.58" x2="27.06" y2="270.58" gradientTransform="translate(-16.56 285.67) rotate(3.89) scale(1 -1)" gradientUnits="userSpaceOnUse">
      <stop offset="0" stop-color="#11509e"/>
      <stop offset=".51" stop-color="#0574bb"/>
      <stop offset="1" stop-color="#11509e"/>
    </linearGradient>
  </defs>
  <circle class="cls-7" cx="22.18" cy="19.83" r="15"/>
  <g transform="translate(22.18,19.83) scale(1.4) translate(-22.18,-19.83)">
    <path class="cls-6" d="M16.38,15.13l2.59,3.01s-1.14,1.08.45,3.34c0,0,2.3,2.89,3.79,1.67l2.67,3.01s-1.69,2.1-4.01,0c0,0-5.64-3.36-6.75-8.96,0,0-.26-.92,1.27-2.08h0Z"/>
    <rect class="cls-5" x="17.72" y="13.84" width="1.87" height="4.07" rx=".81" ry=".81" transform="translate(-5.84 15.98) rotate(-40.65)"/>
    <rect class="cls-4" x="24.62" y="21.88" width="1.87" height="4.05" rx=".81" ry=".81" transform="translate(-9.41 22.42) rotate(-40.65)"/>
    <path class="cls-3" d="M21.98,18.46l.15-.63s1.31-.1,1.99,1.28c0,0,.26.68.06,1.32h-.68s.3-.79-.39-1.46c0,0-.19-.4-1.14-.52h0Z"/>
    <path class="cls-1" d="M22.42,16.98l.25-1.11s2.11-.17,3.2,2.24c0,0,.42,1.19.1,2.31h-1.09s.48-1.37-.62-2.54c0,0-.31-.7-1.83-.9h0Z"/>
    <path class="cls-2" d="M22.96,15.37l.52-1.66s3.44-.03,4.96,3.78c0,0,.56,1.86-.07,3.53l-1.77-.12s.93-2.05-.75-3.95c0,0-.43-1.1-2.88-1.58h0Z"/>
  </g>
</svg>