<svg xmlns="http://www.w3.org/2000/svg" xmlns:xlink="http://www.w3.org/1999/xlink" width="1920" zoomAndPan="magnify" viewBox="0 0 1440 809.999993" height="1080" preserveAspectRatio="xMidYMid meet" version="1.0"><defs><clipPath id="3d783648e2"><path d="M 535 189.289062 L 901 189.289062 L 901 341 L 535 341 Z M 535 189.289062 " clip-rule="nonzero"/></clipPath><clipPath id="85182b9751"><path d="M 776 444 L 925 444 L 925 620.539062 L 776 620.539062 Z M 776 444 " clip-rule="nonzero"/></clipPath><clipPath id="b8e2ff061e"><path d="M 511.027344 313 L 928.777344 313 L 928.777344 439 L 511.027344 439 Z M 511.027344 313 " clip-rule="nonzero"/></clipPath></defs><g clip-path="url(#3d783648e2)"><path fill="#5e17eb" d="M 761.976562 208.296875 C 796.453125 217.117188 826.785156 236.347656 849.496094 262.386719 C 835.875 269.28125 819.929688 274.96875 802.359375 279.261719 C 792.71875 248.324219 778.65625 223.832031 761.976562 208.296875 Z M 725.789062 288.671875 L 725.789062 203.492188 C 751.558594 207.941406 775.082031 237.804688 789.179688 282.140625 C 769.378906 286.046875 747.941406 288.292969 725.789062 288.671875 Z M 712.390625 288.671875 C 690.222656 288.296875 668.773438 286.050781 648.957031 282.140625 C 663.03125 237.730469 686.515625 207.917969 712.390625 203.488281 Z M 635.796875 279.269531 C 618.234375 274.976562 602.289062 269.292969 588.667969 262.402344 C 611.351562 236.386719 641.636719 217.167969 676.0625 208.328125 C 659.410156 223.855469 645.414062 248.339844 635.796875 279.269531 Z M 858.097656 273.007812 C 869.5625 288.445312 878.503906 305.859375 884.339844 324.625 C 888.039062 325.527344 890.835938 327.242188 893.554688 329.226562 C 894.960938 329.742188 896.34375 330.5625 897.640625 331.800781 C 898.375 332.460938 899.113281 333.117188 899.847656 333.777344 C 900.230469 334.054688 900.554688 334.359375 900.890625 334.660156 C 882.03125 251.667969 807.707031 189.511719 719.089844 189.511719 C 628.285156 189.511719 552.472656 254.765625 535.980469 340.832031 C 538.105469 336.890625 541.023438 333.230469 545.003906 329.941406 C 547.5625 327.820312 550.382812 327.0625 553.066406 327.234375 C 558.867188 307.480469 568.078125 289.167969 580.066406 273.023438 C 595.003906 280.890625 612.652344 287.34375 632.152344 292.144531 C 629.578125 302.152344 627.421875 312.710938 625.769531 323.796875 L 639.023438 325.773438 C 640.628906 315.011719 642.730469 304.746094 645.253906 295.039062 C 666.257812 299.265625 688.96875 301.683594 712.390625 302.070312 L 712.390625 325.179688 L 725.789062 325.179688 L 725.789062 302.070312 C 749.199219 301.679688 771.90625 299.261719 792.902344 295.035156 C 795.261719 304.078125 797.261719 313.597656 798.816406 323.5625 L 812.054688 321.492188 C 810.453125 311.246094 808.421875 301.449219 806.015625 292.136719 C 825.519531 287.335938 843.160156 280.878906 858.097656 273.007812 " fill-opacity="1" fill-rule="nonzero"/></g><path fill="#5e17eb" d="M 884.464844 426.894531 C 879.289062 443.699219 871.640625 459.425781 861.90625 473.628906 L 873.753906 480.046875 C 886.382812 461.335938 895.703125 440.21875 900.886719 417.546875 C 896.921875 423.125 891.363281 427.199219 884.464844 426.894531 " fill-opacity="1" fill-rule="nonzero"/><path fill="#5e17eb" d="M 712.390625 548.484375 C 686.5625 544.078125 663.15625 514.4375 649.078125 470.230469 C 668.859375 466.335938 690.269531 464.097656 712.390625 463.722656 Z M 588.925781 489.867188 C 602.519531 483.019531 618.417969 477.371094 635.917969 473.101562 C 645.515625 503.839844 659.445312 528.175781 676.019531 543.632812 C 641.742188 534.824219 611.570312 515.71875 588.925781 489.867188 Z M 762.097656 543.648438 C 768.597656 537.585938 774.683594 530.144531 780.273438 521.503906 L 775.421875 503.277344 C 761.878906 528.859375 744.449219 545.285156 725.789062 548.484375 L 725.789062 463.722656 C 739.410156 463.953125 752.761719 464.898438 765.628906 466.492188 L 761.929688 452.597656 C 750.171875 451.304688 738.082031 450.527344 725.789062 450.320312 L 725.789062 426.234375 L 712.390625 426.234375 L 712.390625 450.324219 C 689.003906 450.710938 666.324219 453.125 645.351562 457.335938 C 642.730469 447.320312 640.5625 436.691406 638.925781 425.535156 L 625.667969 427.488281 C 627.355469 438.972656 629.578125 449.898438 632.25 460.230469 C 612.808594 465.011719 595.207031 471.433594 580.292969 479.261719 C 567.699219 462.382812 558.132812 443.132812 552.355469 422.320312 C 547.515625 421.71875 542.753906 419.027344 539.070312 415.03125 C 537.796875 413.648438 536.78125 412.164062 535.890625 410.628906 C 552.183594 496.949219 628.105469 562.460938 719.089844 562.460938 C 743.308594 562.460938 766.433594 557.769531 787.683594 549.332031 L 784.214844 536.300781 C 777.0625 539.21875 769.6875 541.699219 762.097656 543.648438 " fill-opacity="1" fill-rule="nonzero"/><g clip-path="url(#85182b9751)"><path fill="#5e17eb" d="M 891.171875 620.53125 L 847.992188 565.722656 L 819.351562 607.527344 L 776.058594 444.898438 L 924.007812 525.050781 L 876.800781 543.265625 L 919.863281 597.933594 L 891.171875 620.53125 " fill-opacity="1" fill-rule="nonzero"/></g><g clip-path="url(#b8e2ff061e)"><path fill="#5e17eb" d="M 573.800781 326.425781 C 546.589844 326.425781 524.453125 348.5625 524.453125 375.769531 C 524.453125 402.980469 546.589844 425.117188 573.800781 425.117188 L 866.269531 425.117188 C 893.476562 425.117188 915.613281 402.980469 915.613281 375.773438 C 915.613281 348.5625 893.476562 326.425781 866.269531 326.425781 Z M 866.269531 438.515625 L 573.800781 438.515625 C 539.203125 438.515625 511.050781 410.371094 511.050781 375.773438 C 511.050781 341.171875 539.203125 313.027344 573.800781 313.027344 L 866.269531 313.027344 C 900.863281 313.027344 929.011719 341.171875 929.011719 375.769531 C 929.011719 410.371094 900.863281 438.515625 866.269531 438.515625 " fill-opacity="1" fill-rule="nonzero"/></g><path fill="#5e17eb" d="M 641.132812 404.445312 C 641.132812 404.445312 634.628906 372.175781 634.082031 368.417969 C 633.367188 372.449219 626.066406 404.445312 626.066406 404.445312 L 610.25 404.445312 L 596.101562 347.097656 L 612.054688 347.097656 C 612.054688 347.097656 618.371094 380.523438 619.140625 385.074219 C 619.929688 380.714844 627.097656 347.097656 627.097656 347.097656 L 642.53125 347.097656 C 642.53125 347.097656 648.859375 379.609375 649.5625 384.183594 C 650.070312 381.144531 656.886719 347.097656 656.886719 347.097656 L 672.167969 347.097656 L 656.777344 404.445312 L 641.132812 404.445312 " fill-opacity="1" fill-rule="nonzero"/><path fill="#5e17eb" d="M 727.027344 404.445312 C 727.027344 404.445312 720.527344 372.175781 719.980469 368.417969 C 719.265625 372.449219 711.964844 404.445312 711.964844 404.445312 L 696.148438 404.445312 L 681.996094 347.097656 L 697.953125 347.097656 C 697.953125 347.097656 704.265625 380.523438 705.039062 385.074219 C 705.828125 380.714844 712.996094 347.097656 712.996094 347.097656 L 728.425781 347.097656 C 728.425781 347.097656 734.757812 379.609375 735.457031 384.183594 C 735.96875 381.144531 742.785156 347.097656 742.785156 347.097656 L 758.066406 347.097656 L 742.675781 404.445312 L 727.027344 404.445312 " fill-opacity="1" fill-rule="nonzero"/><path fill="#5e17eb" d="M 812.929688 404.445312 C 812.929688 404.445312 806.425781 372.175781 805.878906 368.417969 C 805.160156 372.449219 797.863281 404.445312 797.863281 404.445312 L 782.046875 404.445312 L 767.898438 347.097656 L 783.851562 347.097656 C 783.851562 347.097656 790.164062 380.523438 790.9375 385.074219 C 791.726562 380.714844 798.894531 347.097656 798.894531 347.097656 L 814.328125 347.097656 C 814.328125 347.097656 820.65625 379.617188 821.355469 384.183594 C 821.867188 381.144531 828.683594 347.097656 828.683594 347.097656 L 843.960938 347.097656 L 828.574219 404.445312 L 812.929688 404.445312 " fill-opacity="1" fill-rule="nonzero"/></svg>